# xmcd
#
# Track frame offsets: 
#        150
#        17508
#        34414
#        53336
#        71736
#        90024
#        111033
#        128311
#        146596
#        172867
#        196760
#        218448
#        232745
#
# Disc length: 3311 seconds
#
# Revision: 0
# Processed by: cddbd v1.5.2PL0 Copyright (c) Steve Scherf et al.
# Submitted via: ExactAudioCopy v0.99pb4
#
DISCID=8f0ced0d
DTITLE=Adele - 21
DYEAR=2011
DGENRE=Soul
TTITLE0=Rolling in the deep
TTITLE1=Rumour has it
TTITLE2=Turning tables
TTITLE3=Don't you remember
TTITLE4=Set fire to the rain
TTITLE5=He won't go
TTITLE6=Take it all
TTITLE7=I'll be waiting
TTITLE8=One and only
TTITLE9=Lovesong
TTITLE10=Someone like you
TTITLE11=If it hadn't been for love
TTITLE12=Hiding my heart
EXTD=
EXTT0=
EXTT1=
EXTT2=
EXTT3=
EXTT4=
EXTT5=
EXTT6=
EXTT7=
EXTT8=
EXTT9=
EXTT10=
EXTT11=
EXTT12=
PLAYORDER=
